<?xml version="1.0" encoding="UTF-8" standalone="no"?>
<svg
   height="48"
   width="48"
   version="1.1"
   id="svg4"
   sodipodi:docname="icon3.svg"
   inkscape:version="1.2.1 (9c6d41e410, 2022-07-14)"
   inkscape:export-filename="16.png"
   inkscape:export-xdpi="32"
   inkscape:export-ydpi="32"
   xmlns:inkscape="http://www.inkscape.org/namespaces/inkscape"
   xmlns:sodipodi="http://sodipodi.sourceforge.net/DTD/sodipodi-0.dtd"
   xmlns="http://www.w3.org/2000/svg"
   xmlns:svg="http://www.w3.org/2000/svg">
  <defs
     id="defs8" />
  <sodipodi:namedview
     id="namedview6"
     pagecolor="#ffffff"
     bordercolor="#666666"
     borderopacity="1.0"
     inkscape:showpageshadow="2"
     inkscape:pageopacity="0.0"
     inkscape:pagecheckerboard="0"
     inkscape:deskcolor="#d1d1d1"
     showgrid="false"
     inkscape:zoom="8"
     inkscape:cx="17.625"
     inkscape:cy="20.125"
     inkscape:window-width="960"
     inkscape:window-height="1017"
     inkscape:window-x="952"
     inkscape:window-y="-8"
     inkscape:window-maximized="0"
     inkscape:current-layer="layer1" />
  <g
     inkscape:groupmode="layer"
     id="layer3"
     inkscape:label="Background">
    <rect
       style="fill:#ffcc00;stroke-width:5;stroke-linecap:round;stroke-linejoin:round;paint-order:markers stroke fill"
       id="rect923"
       width="48"
       height="48"
       x="0"
       y="0" />
  </g>
  <g
     inkscape:groupmode="layer"
     id="layer2"
     inkscape:label="Calendar">
    <path
       id="path2"
       d="M 12.25 4 L 12.25 7 L 9 7 C 8.2000016 7 7.5003894 7.3003918 6.9003906 7.9003906 C 6.3003918 8.5003894 6 9.2000016 6 10 L 6 41 C 6 41.799998 6.3003918 42.499611 6.9003906 43.099609 C 7.5003894 43.699609 8.2000016 44 9 44 L 39 44 C 39.799998 44 40.499611 43.699609 41.099609 43.099609 C 41.699609 42.499611 42 41.799998 42 41 L 42 10 C 42 9.2000016 41.699609 8.5003894 41.099609 7.9003906 C 40.499611 7.3003918 39.799998 7 39 7 L 35.75 7 L 35.75 4 L 32.5 4 L 32.5 7 L 15.5 7 L 15.5 4 L 12.25 4 z M 9 19.5 L 31.769531 19.5 L 39 19.5 L 39 41 L 16.980469 41 L 13.212891 41 L 9 41 L 9 19.5 z M 16 24 C 15.433335 24 14.957551 24.190886 14.574219 24.574219 C 14.190886 24.957551 14 25.433335 14 26 C 14 26.566665 14.190886 27.042449 14.574219 27.425781 C 14.957551 27.809114 15.433335 28 16 28 C 16.566665 28 17.042449 27.809114 17.425781 27.425781 C 17.809114 27.042449 18 26.566665 18 26 C 18 25.433335 17.809114 24.957551 17.425781 24.574219 C 17.042449 24.190886 16.566665 24 16 24 z M 24 24 C 23.433335 24 22.957551 24.190886 22.574219 24.574219 C 22.190886 24.957551 22 25.433335 22 26 C 22 26.566665 22.190886 27.042449 22.574219 27.425781 C 22.657221 27.508783 22.746293 27.577548 22.837891 27.642578 L 25.646484 24.84375 C 25.580496 24.750092 25.510487 24.658925 25.425781 24.574219 C 25.042449 24.190886 24.566665 24 24 24 z M 33.4375 24.587891 L 33.050781 24.974609 L 31.814453 26.207031 L 30.583984 27.433594 C 30.965719 27.810868 31.43783 28 32 28 C 32.566665 28 33.042449 27.809114 33.425781 27.425781 C 33.809114 27.042449 34 26.566665 34 26 C 34 25.439806 33.812128 24.968915 33.4375 24.587891 z M 16 32 C 15.433335 32 14.957551 32.190886 14.574219 32.574219 C 14.190886 32.957551 14 33.433335 14 34 C 14 34.566665 14.190886 35.042449 14.574219 35.425781 C 14.653512 35.505074 14.739034 35.569922 14.826172 35.632812 L 17.636719 32.830078 C 17.573049 32.741337 17.506411 32.654849 17.425781 32.574219 C 17.042449 32.190886 16.566665 32 16 32 z M 32 32 C 31.433335 32 30.957551 32.190886 30.574219 32.574219 C 30.190886 32.957551 30 33.433335 30 34 C 30 34.566665 30.190886 35.042449 30.574219 35.425781 C 30.957551 35.809114 31.433335 36 32 36 C 32.566665 36 33.042449 35.809114 33.425781 35.425781 C 33.809114 35.042449 34 34.566665 34 34 C 34 33.433335 33.809114 32.957551 33.425781 32.574219 C 33.042449 32.190886 32.566665 32 32 32 z M 25.427734 32.576172 L 22.572266 35.423828 L 22.574219 35.425781 C 22.957551 35.809114 23.433335 36 24 36 C 24.566665 36 25.042449 35.809114 25.425781 35.425781 C 25.809114 35.042449 26 34.566665 26 34 C 26 33.434323 25.809732 32.959155 25.427734 32.576172 z " />
  </g>
  <g
     inkscape:groupmode="layer"
     id="layer1"
     inkscape:label="Pencil"
     style="display:inline">
    <g
       id="g1689">
      <path
         d="m 16.285312,37.984105 h 1.0654 L 28.07735,27.257467 27.01195,26.192067 16.285312,36.918705 Z M 31.152481,26.21628 28.053137,23.116937 29.070109,22.099964 q 0.411631,-0.411632 1.016972,-0.411632 0.605341,0 1.016973,0.411632 l 1.065399,1.065399 q 0.411632,0.411632 0.411632,1.016973 0,0.605341 -0.411632,1.016973 z M 30.135508,27.233254 17.93184,39.436923 H 14.832496 V 36.337577 L 27.036163,24.133909 Z m -2.590857,-0.508487 -0.5327,-0.5327 1.065399,1.0654 z"
         id="path521"
         style="display:inline;stroke-width:0.484273" />
      <rect
         style="fill:#000000;fill-opacity:1;stroke:none;stroke-width:7.486;stroke-linecap:round;stroke-linejoin:round;paint-order:markers stroke fill"
         id="rect1617"
         width="1.0761125"
         height="1.0761125"
         x="15.747255"
         y="36.907993" />
      <rect
         style="fill:#000000;fill-opacity:1;stroke:none;stroke-width:7.486;stroke-linecap:round;stroke-linejoin:round;paint-order:markers stroke fill"
         id="rect1617-4"
         width="1.0761125"
         height="1.0761125"
         x="16.285313"
         y="37.446049" />
    </g>
  </g>
</svg>
