<?xml version="1.0" encoding="UTF-8" standalone="no"?>
<svg
   height="48"
   width="48"
   version="1.1"
   id="svg4"
   sodipodi:docname="icon.svg"
   inkscape:version="1.2.1 (9c6d41e410, 2022-07-14)"
   inkscape:export-filename="icon.png"
   inkscape:export-xdpi="2048"
   inkscape:export-ydpi="2048"
   xmlns:inkscape="http://www.inkscape.org/namespaces/inkscape"
   xmlns:sodipodi="http://sodipodi.sourceforge.net/DTD/sodipodi-0.dtd"
   xmlns="http://www.w3.org/2000/svg"
   xmlns:svg="http://www.w3.org/2000/svg">
  <defs
     id="defs8" />
  <sodipodi:namedview
     id="namedview6"
     pagecolor="#ffffff"
     bordercolor="#666666"
     borderopacity="1.0"
     inkscape:showpageshadow="2"
     inkscape:pageopacity="0.0"
     inkscape:pagecheckerboard="0"
     inkscape:deskcolor="#d1d1d1"
     showgrid="false"
     inkscape:zoom="11.313709"
     inkscape:cx="6.9384853"
     inkscape:cy="12.462757"
     inkscape:window-width="1920"
     inkscape:window-height="1017"
     inkscape:window-x="-8"
     inkscape:window-y="-8"
     inkscape:window-maximized="1"
     inkscape:current-layer="layer3"
     showguides="false" />
  <g
     inkscape:groupmode="layer"
     id="layer1"
     inkscape:label="bg"
     transform="translate(45.376486,-5.0283153)">
    <rect
       style="fill:#ffcc00;stroke-width:5;stroke-linecap:round;stroke-linejoin:round;paint-order:markers stroke fill"
       id="rect512"
       width="58.312233"
       height="56.284687"
       x="-49.3283"
       y="1.7031388" />
  </g>
  <g
     inkscape:groupmode="layer"
     id="layer3"
     inkscape:label="icon">
    <path
       id="path2"
       d="m 13.971207,4 v 3 h -3.25 C 9.9212088,7 9.2215966,7.3003918 8.6215978,7.9003906 8.0215989,8.5003894 7.7212071,9.2000016 7.7212071,10 v 31 c 0,0.799998 0.3003918,1.499611 0.9003907,2.099609 C 9.2215966,43.699609 9.9212088,44 10.721207,44 h 15 v -3 h -15 V 19.5 h 15 v -3 h -15 V 10 h 15 V 7 h -8.5 V 4 Z m 0.488351,20 c -0.566665,0 -1.042449,0.190886 -1.425781,0.574219 -0.383333,0.383332 -0.574219,0.859116 -0.574219,1.425781 0,0.566665 0.190886,1.042449 0.574219,1.425781 C 13.417109,27.809114 13.892893,28 14.459558,28 c 0.566666,0 1.042449,-0.190886 1.425781,-0.574219 0.383333,-0.383332 0.574219,-0.859116 0.574219,-1.425781 0,-0.566665 -0.190886,-1.042449 -0.574219,-1.425781 C 15.502007,24.190886 15.026224,24 14.459558,24 Z m 0,8 c -0.566665,0 -1.042449,0.190886 -1.425781,0.574219 -0.383333,0.383332 -0.574219,0.859116 -0.574219,1.425781 0,0.566665 0.190886,1.042449 0.574219,1.425781 C 13.417109,35.809114 13.892893,36 14.459558,36 c 0.566666,0 1.042449,-0.190886 1.425781,-0.574219 0.383333,-0.383332 0.574219,-0.859116 0.574219,-1.425781 0,-0.566665 -0.190886,-1.042449 -0.574219,-1.425781 C 15.502007,32.190886 15.026224,32 14.459558,32 Z m 8.000502,-8.00158 c -0.566665,0 -1.042449,0.190886 -1.425781,0.574219 -0.383333,0.383332 -0.574219,0.859116 -0.574219,1.425781 0,0.566665 0.190886,1.042449 0.574219,1.425781 0.383332,0.383333 0.859116,0.574219 1.425781,0.574219 0.566666,0 1.042449,-0.190886 1.425781,-0.574219 0.383333,-0.383332 0.574219,-0.859116 0.574219,-1.425781 0,-0.566665 -0.190886,-1.042449 -0.574219,-1.425781 C 23.502509,24.189306 23.026726,23.99842 22.46006,23.99842 Z m 0,8 c -0.566665,0 -1.042449,0.190886 -1.425781,0.574219 -0.383333,0.383332 -0.574219,0.859116 -0.574219,1.425781 0,0.566665 0.190886,1.042449 0.574219,1.425781 0.383332,0.383333 0.859116,0.574219 1.425781,0.574219 0.566666,0 1.042449,-0.190886 1.425781,-0.574219 0.383333,-0.383332 0.574219,-0.859116 0.574219,-1.425781 0,-0.566665 -0.190886,-1.042449 -0.574219,-1.425781 C 23.502509,32.189306 23.026726,31.99842 22.46006,31.99842 Z"
       sodipodi:nodetypes="ccsssssscccccccccccccssssssssssssssssssssssssssssssssssss"
       style="fill:#000000;fill-opacity:1" />
    <path
       id="path296"
       d="m 27.273298,6.9754202 v 3.0340888 c 3.23333,0 5.959117,0.722439 8.175781,2.777026 2.216665,2.054585 3.324219,4.581067 3.324219,7.577982 0,2.193617 -0.607553,4.201865 -1.824219,6.024731 -1.216665,1.822865 -2.826174,3.166484 -4.826172,4.031573 h -3.699218 v -6.348778 l 4.599609,-4.263293 -1.550781,-1.437391 -4.199219,3.893989 v 10.936118 h 4.400391 v 1.853763 h -4.400391 v 1.853764 h 4.400391 v 2.040226 H 27.273298 V 44 c 0.899999,0 1.691667,-0.201187 2.375,-0.602836 0.683333,-0.401648 1.124219,-0.956692 1.324219,-1.6673 h 0.701172 c 0.799999,0 1.49961,-0.278427 2.099609,-0.834555 0.599999,-0.556129 0.900391,-1.204586 0.900391,-1.94609 v -6.627566 c 2.199997,-1.328529 3.932553,-3.027816 5.199218,-5.097849 1.266666,-2.070034 1.900391,-4.35671 1.900391,-6.859287 0,-3.738419 -1.407946,-6.913358 -4.224609,-9.524072 C 34.732025,8.2297304 31.306627,6.9754202 27.273298,6.9754202 Z"
       style="stroke-width:0.962747;fill:#000000"
       sodipodi:nodetypes="ccssscccccccccccccccscssscsssc" />
  </g>
</svg>
